<svg xmlns="http://www.w3.org/2000/svg" id="uuid-8cc1b21a-04e6-48ef-a106-12137fcd83d1" viewBox="0 0 260 50"><defs><style>.uuid-0217da08-2e9d-4e7f-beb4-9dd789fafc28{fill:#3f80c3;}.uuid-0217da08-2e9d-4e7f-beb4-9dd789fafc28,.uuid-1240ed80-1dbd-40bf-92f8-6ab7d4346d3f{stroke-width:0px;}.uuid-1240ed80-1dbd-40bf-92f8-6ab7d4346d3f{fill:#fff;}</style></defs><path class="uuid-1240ed80-1dbd-40bf-92f8-6ab7d4346d3f" d="M23.1,31.57c0-7.97,5.31-14.95,13.81-14.95,5.84,0,10.39,2.75,10.63,9.3h-7.31c-.19-2.14-1.14-3.65-3.51-3.65-4.22,0-6.03,5.36-6.03,9.44,0,2.7,1.09,4.89,4.13,4.89,2.18,0,3.99-1.33,4.74-4.22h7.26c-1.23,6.31-6.03,9.92-12.15,9.96-6.22,0-11.58-3.18-11.58-10.77Z"></path><path class="uuid-1240ed80-1dbd-40bf-92f8-6ab7d4346d3f" d="M48.34,31.19c0-7.97,5.46-14.57,13.9-14.57,6.22,0,11.67,3.61,11.72,11.05,0,8.07-5.41,14.66-13.9,14.66-6.17,0-11.72-3.65-11.72-11.15ZM66.27,27.44c0-2.8-1.14-5.41-4.27-5.41-4.37,0-6.07,5.6-6.03,9.49,0,2.89,1.09,5.41,4.22,5.41,4.41,0,6.12-5.5,6.07-9.49Z"></path><path class="uuid-1240ed80-1dbd-40bf-92f8-6ab7d4346d3f" d="M75,17.29h7.73l1.28,10.87c.28,2.56.47,5.08.47,5.08h.05s1.04-2.42,2.23-4.93l5.12-11.01h7.69l-12.43,24.29h-8.21l-3.94-24.29Z"></path><path class="uuid-1240ed80-1dbd-40bf-92f8-6ab7d4346d3f" d="M104.61,31.43c.05,3.04.95,5.36,4.41,5.36,1.85,0,3.42-.76,4.18-2.47h7.5c-1.52,4.7-5.74,7.97-12,7.97-6.6,0-11.58-3.75-11.58-11.2s5.41-14.52,13.43-14.52c2.8,0,4.79.57,6.5,1.61,3.84,2.42,5.12,7.21,4.22,13.24h-16.65ZM105.23,26.83h9.11c.09-2.61-1-4.79-3.89-4.79-2.42,0-4.37,1.8-5.22,4.79Z"></path><path class="uuid-1240ed80-1dbd-40bf-92f8-6ab7d4346d3f" d="M126.39,17.29h7.31l-.81,3.99h.14c1.76-2.85,3.99-4.37,7.02-4.37.81,0,1.42.09,1.71.19l-1.33,6.83h-.14c-4.89-.71-7.83,1.19-8.97,7.02l-2.04,10.63h-7.59l4.7-24.29Z"></path><path class="uuid-1240ed80-1dbd-40bf-92f8-6ab7d4346d3f" d="M143.18,34.37l2.37-12.24h-3.08l.95-4.84h3.08l1.47-7.69h7.45l-1.52,7.69h4.32l-.95,4.84h-4.32l-2.18,11.34c-.33,1.9.24,2.56,2.04,2.56.57,0,1.52-.05,1.8-.09l-1.09,5.5c-.52.19-2.04.43-3.65.43-5.41,0-7.73-2.32-6.69-7.5Z"></path><path class="uuid-1240ed80-1dbd-40bf-92f8-6ab7d4346d3f" d="M160.15,41.58h3.72l1.5-7.8-5.21,7.8ZM175.54,16.58c-3.46,0-5.65,1.57-7.5,4.03h-.14l2.35-12.11-10.67,15.97-3.3,17.11,11.34-16.37h0c.93-1.44,2.27-2.37,3.94-2.37,2.51,0,3.37,1.71,2.85,4.37l-2.8,14.38h7.59l2.89-14.95c1.19-6.26-1.66-10.06-6.55-10.06ZM162.82,7.66l-1.73,8.96,6.21-8.96h-4.48Z"></path><path class="uuid-1240ed80-1dbd-40bf-92f8-6ab7d4346d3f" d="M182.94,35.18c0-5.93,4.41-7.64,10.34-8.07,4.79-.33,6.74-.62,6.74-2.99,0-1.38-1-2.32-3.04-2.32-2.32,0-3.8,1.04-4.32,3.18h-7.07c.9-5.03,4.7-8.35,11.77-8.35,2.8,0,5.46.47,7.35,1.95,1.99,1.47,3.08,4.03,2.32,8.02l-2.18,11.2c-.38,1.85-.28,2.94.14,3.46v.33h-7.31c-.28-.57-.38-1.61-.38-2.66h-.09c-1.61,1.9-3.8,3.27-6.64,3.27-4.22,0-7.64-2.47-7.64-7.02ZM198.5,33.14l.57-2.99c-1.09.52-2.32.81-4.13,1.09-1.95.33-4.65.47-4.65,3.27,0,1.9,1.28,2.75,3.13,2.75,2.61,0,4.51-1.47,5.08-4.13Z"></path><path class="uuid-1240ed80-1dbd-40bf-92f8-6ab7d4346d3f" d="M212.41,17.29h7.31l-.81,3.99h.14c1.76-2.85,3.99-4.37,7.02-4.37.81,0,1.42.09,1.71.19l-1.33,6.83h-.14c-4.89-.71-7.83,1.19-8.97,7.02l-2.04,10.63h-7.59l4.7-24.29Z"></path><path class="uuid-1240ed80-1dbd-40bf-92f8-6ab7d4346d3f" d="M229.2,34.37l2.37-12.24h-3.08l.95-4.84h3.08l1.47-7.69h7.45l-1.52,7.69h4.32l-.95,4.84h-4.32l-2.18,11.34c-.33,1.9.24,2.56,2.04,2.56.57,0,1.52-.05,1.8-.09l-1.09,5.5c-.52.19-2.04.43-3.65.43-5.41,0-7.73-2.32-6.69-7.5Z"></path><path class="uuid-1240ed80-1dbd-40bf-92f8-6ab7d4346d3f" d="M248.9,13.47c0-.66.16-1.27.49-1.84.33-.57.78-1.03,1.35-1.36.57-.33,1.19-.5,1.85-.5s1.27.16,1.84.49c.57.33,1.02.78,1.36,1.35.33.57.5,1.19.5,1.85s-.16,1.25-.48,1.82c-.32.57-.76,1.02-1.34,1.36-.57.34-1.2.51-1.88.51s-1.3-.17-1.88-.51c-.57-.34-1.02-.79-1.34-1.36-.32-.57-.48-1.17-.48-1.82ZM249.42,13.47c0,.57.14,1.1.43,1.59.28.49.67.88,1.17,1.16s1.02.42,1.58.42,1.1-.14,1.59-.43c.49-.29.88-.67,1.16-1.16.29-.49.43-1.02.43-1.59s-.14-1.1-.43-1.59c-.28-.49-.67-.88-1.16-1.16-.49-.29-1.02-.43-1.59-.43s-1.1.14-1.59.43c-.49.29-.88.67-1.16,1.16-.29.49-.43,1.02-.43,1.59ZM254.1,12.58c0,.26-.07.49-.21.7-.14.2-.33.35-.59.45l1.17,1.94h-.83l-1.02-1.74h-.66v1.74h-.73v-4.38h1.28c.54,0,.94.11,1.2.32.25.21.38.54.38.97ZM251.96,13.32h.53c.26,0,.47-.07.63-.2.16-.14.24-.31.24-.52,0-.25-.07-.42-.21-.53s-.36-.16-.67-.16h-.52v1.41Z"></path><rect class="uuid-0217da08-2e9d-4e7f-beb4-9dd789fafc28" x="2.68" y="25.78" width="16.53" height="2.37" rx="1.1" ry="1.1"></rect><rect class="uuid-0217da08-2e9d-4e7f-beb4-9dd789fafc28" x="13.9" y="21.46" width="6.61" height="2.37" rx="1.1" ry="1.1"></rect><rect class="uuid-0217da08-2e9d-4e7f-beb4-9dd789fafc28" x="7.18" y="30.71" width="6.61" height="2.37" rx="1.1" ry="1.1"></rect></svg>